# xmcd
#
# Track frame offsets: 
#        150
#        13984
#        25317
#        39047
#        48975
#        62952
#        73665
#        87045
#        97370
#        108625
#        120667
#        132467
#        142207
#        155167
#        164785
#        178872
#        191635
#        202975
#        213795
#        226940
#        245107
#        258385
#        268727
#        285302
#        295920
#        311737
#
# Disc length: 4283 seconds
#
# Revision: 3
# Processed by: cddbd v1.5.2PL0 Copyright (c) Steve Scherf et al.
# Submitted via: ExactAudioCopy v0.95b2
#
DISCID=9a10b91a
DTITLE=Guitar Slim - Sufferin' Mind
DYEAR=1953
DGENRE=Blues
TTITLE0=The Things That I Used To Do
TTITLE1=Well I Done Got Over It
TTITLE2=Story Of My Life
TTITLE3=Letter To My Girlfriend
TTITLE4=Trouble Don't Last
TTITLE5=Later For You Baby
TTITLE6=Bad Luck Blues
TTITLE7=Twenty-five Lies
TTITLE8=Sufferin' Mind
TTITLE9=Stand By Me
TTITLE10=Guitar Slim
TTITLE11=Our Only Child
TTITLE12=Reap What You Sow
TTITLE13=I Want To Love-A You (alt - take 1)
TTITLE14=Sufferin' Mind (alt - take 1)
TTITLE15=I Want To Love-A You (take 11)
TTITLE16=Think It Over
TTITLE17=Quicksand
TTITLE18=You're Gonna Miss Me
TTITLE19=I Got Sumpin' For You
TTITLE20=Something To Remember You By
TTITLE21=You Give Me Nothing But The Blues
TTITLE22=Going Down Slow
TTITLE23=Certainly All (take 2)
TTITLE24=Something To Remember You By
TTITLE25=Certainly All (alt - take 1)
EXTD=YEAR: 1953
EXTT0=
EXTT1=
EXTT2=
EXTT3=
EXTT4=
EXTT5=
EXTT6=
EXTT7=
EXTT8=
EXTT9=
EXTT10=
EXTT11=
EXTT12=
EXTT13=
EXTT14=
EXTT15=
EXTT16=
EXTT17=
EXTT18=
EXTT19=
EXTT20=
EXTT21=
EXTT22=
EXTT23=
EXTT24=
EXTT25=
PLAYORDER=
